# xmcd
#
# Track frame offsets:
#	150
#	15065
#	28587
#	41405
#	54842
#	71232
#	88367
#	100925
#	113812
#	129590
#
# Disc length: 1912
#
# Revision: 1
# Processed by: cddbd v1.5.1PL0 Copyright (c) Steve Scherf et al.
# Submitted via: dBpowerAMP V4.0
# Normalized: r0:TDELIM( - )
#
DISCID=7a07760a
DTITLE=Various Artist - Greatest Country Hits of 1981
DYEAR=1981
DGENRE=Country
TTITLE0=Rosanne Cash - Seven Year Ache
TTITLE1=Ricky Skaggs - Crying My Heart Out Over You
TTITLE2=George Jones - Still Doin' Time
TTITLE3=Merle Haggard - My Favorite Memory
TTITLE4=Johnny Cash - The Baron
TTITLE5=Crystal Gayle - Too Many Lovers
TTITLE6=Ronnie McDowell - Older Women
TTITLE7=Janie Frickie - I'll Need Someone To Love Me (When I Cry)
TTITLE8=Lacy J. Dalton - Takin' It Easy
TTITLE9=Mickey Gilley - You Don't Know Me
EXTD=CBS Compilation
EXTT0=
EXTT1=
EXTT2=
EXTT3=
EXTT4=
EXTT5=
EXTT6=
EXTT7=
EXTT8=
EXTT9=
PLAYORDER=
